<?xml version="1.0" encoding="UTF-8"?>
<svg id="Layer_2" data-name="Layer 2" xmlns="http://www.w3.org/2000/svg" viewBox="0 0 283.46 283.46">
  <defs>
    <style>
      .cls-1 {
        fill: #fff;
      }
    </style>
  </defs>
  <g id="Layer_1-2" data-name="Layer 1">
    <g>
      <path class="cls-1" d="M141.73,0C63.46,0,0,63.46,0,141.73c0,11.27,1.35,22.21,3.84,32.72l.28-.06,31.14-6.19c8.92-1.77,15.31-4.6,21.38-9.46l52.69-42.19v-16.22h2.97l4.67,10.1,1.59-1.27c7.85-6.29,16.31-9.47,25.15-9.47s18.79,3.46,28.63,10.28l4.47,3.1c.14-1.14.23-2.31.23-3.55,0-5.5-1.67-9.84-5-13.04-3.34-3.2-8.74-5.74-16.22-7.64l-22.44-5.81c-7.84-2.07-13.74-5.61-17.71-10.61-3.97-5-5.95-10.93-5.95-17.78,0-9.55,2.79-17.24,8.38-23.05,5.59-5.81,13.34-8.72,23.25-8.72,8.2,0,15.54,1.4,22.03,4.19l9.87-4.19h2.97v27.58h-2.97l-9.73-19.74c-6.76-3.24-14.08-4.86-21.97-4.86s-14.08,2.01-18.59,6.01c-4.51,4.01-6.76,9.31-6.76,15.88,0,4.87,1.6,8.7,4.8,11.49,3.2,2.8,7.91,5,14.13,6.62l24.2,6.35c7.84,1.98,13.67,5.38,17.51,10.2,3.83,4.82,5.75,12.19,5.75,22.1,0,4.18-.58,7.96-1.68,11.38l21.41,14.84c12.56,8.71,25.84,14.75,41.78,19.02,12.81,3.43,23.05,10.63,30.44,21.39l4.35,6.34c2.97-11.43,4.56-23.41,4.56-35.77C283.46,63.46,220.01,0,141.73,0Z"/>
      <path class="cls-1" d="M270.2,174.14c-6.63-9.65-15.94-16.19-27.45-19.28-15.68-4.2-29.61-10.21-43.42-19.78l-29.98-20.78c-8.55-5.92-17.13-9.34-25.63-9.34-7.37,0-14.68,2.57-21.86,8.32l-61.92,49.58c-7.24,5.79-14.66,8.73-23.65,10.52l-31.14,6.19c2.57,9.29,6.06,18.19,10.37,26.61.06.12.12.24.19.36.83,1.62,1.7,3.22,2.59,4.8.03.05.06.1.09.15,3.65,6.44,7.8,12.57,12.38,18.33.14.17.27.34.4.51,1.01,1.25,2.04,2.49,3.09,3.7.28.32.56.65.84.97,1.02,1.16,2.05,2.31,3.1,3.44.3.32.6.63.9.94,1.09,1.15,2.19,2.29,3.32,3.39.04.04.07.07.11.11,2.58,2.53,5.25,4.96,8.01,7.28.1.08.2.17.3.26,1.05.88,2.12,1.72,3.19,2.57.57.45,1.13.9,1.7,1.34.99.76,2,1.5,3.02,2.23.69.5,1.37.99,2.07,1.47.98.68,1.96,1.36,2.96,2.01.77.51,1.55,1,2.33,1.5.96.61,1.92,1.22,2.9,1.81.95.57,1.91,1.1,2.87,1.65,1.41.8,2.83,1.58,4.27,2.33,1.17.61,2.34,1.23,3.53,1.81.85.42,1.72.81,2.59,1.21,1.07.5,2.15.99,3.23,1.46.88.38,1.77.75,2.66,1.11,1.11.46,2.23.9,3.36,1.33.87.33,1.73.65,2.61.97,1.23.44,2.48.86,3.73,1.26.78.25,1.56.52,2.35.76,1.8.55,3.61,1.06,5.43,1.54.36.09.71.19,1.07.28,1.97.5,3.95.96,5.95,1.37.72.15,1.45.28,2.17.41,1.44.28,2.88.54,4.33.77.82.13,1.64.25,2.46.37,1.4.2,2.8.38,4.22.54.82.09,1.64.18,2.47.26,1.51.14,3.03.25,4.55.35.72.05,1.44.1,2.16.14,2.24.11,4.49.17,6.75.17s4.48-.07,6.7-.17c.7-.03,1.4-.09,2.1-.13,1.53-.09,3.06-.21,4.58-.35.79-.07,1.57-.16,2.35-.24,1.48-.16,2.94-.35,4.41-.56.73-.1,1.46-.2,2.19-.32,1.75-.28,3.49-.59,5.22-.93.4-.08.8-.14,1.19-.22,2.11-.43,4.2-.92,6.28-1.45.59-.15,1.18-.32,1.76-.48,1.49-.4,2.98-.82,4.45-1.26.73-.22,1.46-.46,2.19-.69,1.34-.43,2.68-.88,4-1.35.72-.26,1.44-.51,2.15-.78,1.44-.54,2.87-1.11,4.29-1.69.54-.22,1.09-.43,1.63-.66,1.93-.82,3.83-1.68,5.71-2.58.45-.22.89-.45,1.34-.67,1.44-.71,2.87-1.44,4.28-2.19.67-.36,1.33-.73,1.99-1.1,1.19-.66,2.37-1.34,3.55-2.04.68-.4,1.36-.81,2.03-1.23,1.19-.74,2.37-1.5,3.54-2.27.59-.39,1.18-.76,1.76-1.16,1.7-1.16,3.37-2.34,5.02-3.57.23-.17.46-.36.69-.54,1.43-1.08,2.83-2.18,4.21-3.31.58-.48,1.15-.97,1.73-1.46,1.02-.86,2.04-1.74,3.04-2.63.61-.55,1.22-1.1,1.82-1.66.97-.89,1.92-1.8,2.86-2.72.56-.55,1.13-1.1,1.68-1.65,1.1-1.12,2.18-2.26,3.25-3.41.35-.37.71-.74,1.05-1.11,1.35-1.5,2.67-3.02,3.96-4.58.48-.57.94-1.17,1.41-1.75.84-1.04,1.67-2.09,2.48-3.15.52-.68,1.02-1.36,1.52-2.05.74-1.02,1.48-2.05,2.19-3.08.48-.7.97-1.4,1.44-2.1.76-1.15,1.5-2.31,2.23-3.48.38-.6.77-1.2,1.14-1.81,1.04-1.72,2.05-3.47,3.02-5.24.33-.61.64-1.24.97-1.85.65-1.23,1.29-2.47,1.91-3.73.38-.78.75-1.57,1.11-2.35.53-1.13,1.05-2.27,1.55-3.42.35-.82.71-1.63,1.05-2.45.5-1.21.97-2.43,1.44-3.65.29-.76.59-1.51.86-2.27.69-1.92,1.35-3.85,1.96-5.81l-6.82-9.94ZM193.58,161.16l-11.3,1.7v88.42l11.3,1.83v2.55h-35.83v-2.55l11.3-1.83v-45.55h-46.16v45.55l11.18,1.83v2.55h-35.71v-2.55l11.18-1.83v-88.42l-11.18-1.7v-2.67h35.71v2.67l-11.18,1.7v39.84h46.16v-39.84l-11.3-1.7v-2.67h35.83v2.67Z"/>
    </g>
  </g>
</svg>