<?xml version="1.0" encoding="UTF-8"?>
<svg id="Layer_2" data-name="Layer 2" xmlns="http://www.w3.org/2000/svg" viewBox="0 0 283.46 283.46">
  <defs>
    <style>
      .cls-1 {
        fill: #7c506e;
      }
    </style>
  </defs>
  <g id="Layer_1-2" data-name="Layer 1">
    <g>
      <path class="cls-1" d="M250.75,232.29c.48-.57.94-1.16,1.4-1.75.84-1.04,1.67-2.09,2.48-3.15.52-.68,1.02-1.37,1.53-2.06.74-1.02,1.47-2.04,2.19-3.08.48-.7.97-1.4,1.44-2.11.76-1.14,1.5-2.3,2.23-3.47.38-.61.77-1.2,1.14-1.82,1.04-1.72,2.04-3.47,3.01-5.24.34-.62.66-1.26.99-1.88.65-1.23,1.28-2.46,1.9-3.7.38-.78.75-1.57,1.12-2.36.53-1.13,1.05-2.27,1.55-3.42.36-.82.71-1.63,1.05-2.45.5-1.2.97-2.42,1.43-3.64.29-.76.59-1.52.87-2.29.69-1.92,1.35-3.85,1.96-5.8h0c4.18-13.37,6.44-27.6,6.44-42.35C283.46,63.46,220.01,0,141.73,0S0,63.46,0,141.73c0,13.11,1.82,25.79,5.15,37.84h0s0,0,0,0c2.57,9.29,6.06,18.19,10.37,26.61.06.12.12.24.18.36.83,1.62,1.7,3.22,2.59,4.81.03.05.06.1.09.15,3.65,6.45,7.79,12.57,12.38,18.34.13.17.27.34.4.51,1.01,1.26,2.04,2.49,3.09,3.71.28.32.55.64.83.96,1.02,1.16,2.05,2.31,3.1,3.44.3.32.61.63.91.95,1.09,1.14,2.18,2.28,3.31,3.39.04.04.08.07.12.11,2.58,2.53,5.25,4.96,8.02,7.29.1.08.19.17.29.25,1.05.88,2.12,1.73,3.2,2.57.56.45,1.12.89,1.69,1.33,1,.76,2,1.5,3.02,2.24.68.5,1.37.98,2.06,1.47.98.68,1.96,1.36,2.96,2.02.77.51,1.55,1,2.33,1.49.96.61,1.92,1.22,2.9,1.81.94.56,1.9,1.1,2.85,1.64,1.41.8,2.84,1.58,4.28,2.34,1.17.61,2.34,1.23,3.53,1.81.85.42,1.72.8,2.58,1.2,1.08.5,2.15.99,3.24,1.47.88.38,1.76.74,2.65,1.11,1.12.46,2.24.9,3.37,1.33.87.33,1.73.65,2.61.97,1.24.44,2.49.86,3.74,1.26.78.25,1.56.52,2.34.76,1.8.55,3.61,1.06,5.43,1.54.36.09.71.19,1.07.28,1.97.5,3.95.96,5.95,1.37.72.15,1.45.28,2.17.42,1.43.28,2.87.54,4.32.77.82.13,1.64.25,2.47.37,1.4.2,2.8.38,4.21.54.82.09,1.65.18,2.48.26,1.51.14,3.03.25,4.55.35.72.04,1.43.1,2.15.14,2.24.11,4.49.17,6.75.17h0c2.25,0,4.48-.07,6.7-.17.7-.03,1.4-.09,2.09-.13,1.54-.09,3.07-.21,4.59-.35.78-.07,1.57-.16,2.35-.24,1.48-.16,2.95-.35,4.41-.56.73-.1,1.46-.2,2.18-.32,1.75-.28,3.49-.59,5.22-.93.4-.08.8-.14,1.2-.22,2.11-.43,4.2-.92,6.28-1.45.59-.15,1.17-.32,1.76-.48,1.49-.4,2.98-.82,4.46-1.27.73-.22,1.46-.46,2.18-.69,1.35-.43,2.68-.89,4.01-1.36.72-.25,1.44-.51,2.15-.77,1.45-.54,2.88-1.11,4.3-1.7.54-.22,1.09-.43,1.63-.66,1.93-.82,3.84-1.68,5.72-2.59.44-.21.87-.44,1.31-.66,1.45-.71,2.89-1.45,4.31-2.21.66-.36,1.32-.73,1.98-1.09,1.2-.67,2.38-1.34,3.55-2.04.68-.4,1.35-.81,2.03-1.23,1.2-.74,2.37-1.5,3.55-2.27.58-.39,1.17-.76,1.75-1.16,1.7-1.16,3.37-2.34,5.02-3.57.24-.18.48-.38.72-.56,1.42-1.07,2.81-2.17,4.18-3.29.59-.48,1.16-.97,1.74-1.46,1.02-.86,2.03-1.73,3.03-2.62.61-.55,1.22-1.1,1.83-1.66.96-.89,1.91-1.8,2.85-2.72.56-.55,1.13-1.1,1.68-1.66,1.1-1.12,2.18-2.26,3.25-3.41.35-.37.71-.74,1.05-1.11,1.36-1.5,2.67-3.02,3.96-4.58ZM266,202.06c-.79,1.62-1.62,3.23-2.47,4.81-.18.33-.35.66-.53.99-2.02,3.69-4.21,7.28-6.55,10.76-.22.32-.44.64-.66.96-.98,1.43-1.99,2.85-3.02,4.24-.24.33-.49.66-.74.98-1.19,1.57-2.4,3.13-3.66,4.65-.03.04-.07.09-.1.13-22.41,27.13-54.97,45.57-91.8,49.5-.46.05-.93.09-1.4.14-1.7.16-3.41.29-5.12.39-.56.03-1.11.07-1.67.1-2.17.1-4.35.17-6.54.17h0c-2.15,0-4.29-.06-6.41-.16-.8-.04-1.59-.1-2.38-.15-1.29-.08-2.57-.18-3.85-.29-1.01-.09-2.02-.2-3.02-.31-.97-.11-1.94-.24-2.91-.37-1.2-.16-2.4-.32-3.6-.52-.38-.06-.75-.14-1.13-.2-23.37-4.02-45.04-13.98-63.1-28.46,0,0-.02-.01-.02-.02-1.19-.95-2.36-1.94-3.52-2.93-.4-.35-.81-.69-1.2-1.04-.98-.86-1.95-1.74-2.91-2.63-.6-.56-1.19-1.13-1.78-1.7-.8-.77-1.59-1.53-2.37-2.31-1.13-1.15-2.24-2.31-3.33-3.5-.36-.38-.71-.77-1.06-1.16-1.25-1.39-2.48-2.8-3.68-4.24-.32-.39-.64-.79-.96-1.18-1.02-1.25-2.02-2.52-2.99-3.81-.31-.41-.62-.83-.93-1.24-1-1.35-1.97-2.71-2.92-4.1-.23-.34-.47-.68-.7-1.02-1.13-1.68-2.22-3.38-3.28-5.11-.03-.05-.06-.1-.09-.15-2.21-3.63-4.24-7.37-6.11-11.21-.26-.53-.51-1.08-.76-1.61-.61-1.3-1.21-2.61-1.78-3.93-.32-.74-.64-1.48-.94-2.23-.46-1.11-.9-2.24-1.33-3.37-.34-.89-.68-1.78-1-2.68-.34-.94-.64-1.88-.96-2.83-.35-1.04-.7-2.07-1.03-3.11l27.32-5.43c10.26-2.04,18.03-5.5,25.19-11.23l47.16-37.76v7.19h2.97l11.49-5.81c8.11,4.77,16.36,7.16,24.74,7.16,10.36,0,18.63-2.84,24.81-8.52,1.34-1.23,2.51-2.59,3.56-4.02l20.39,14.13c13.43,9.31,27.58,15.75,44.53,20.29,10.72,2.87,19.27,8.87,25.43,17.85l5.79,8.44c-1.86,5.69-4.07,11.24-6.62,16.58-.14.29-.28.59-.43.88ZM120.8,118.71l3.29-2.64c6.33-5.07,12.75-7.53,19.63-7.53,7.32,0,15.26,2.93,23.6,8.71l6.64,4.6c-1.21,2-2.76,3.78-4.67,5.32-5.18,4.19-12.16,6.29-20.95,6.29s-16.92-2.66-24.4-7.98l-3.13-6.77ZM3.57,141.73C3.57,65.55,65.55,3.57,141.73,3.57s138.16,61.98,138.16,138.16c0,13.36-1.95,26.28-5.5,38.51l-4.19-6.1c-6.63-9.65-15.94-16.19-27.45-19.28-15.68-4.2-29.61-10.21-43.42-19.78l-20.5-14.2c2.5-4.59,3.77-10.04,3.77-16.35,0-9.91-1.92-17.28-5.75-22.1-3.83-4.82-9.67-8.22-17.51-10.2l-24.2-6.35c-6.22-1.62-10.93-3.83-14.13-6.62-3.2-2.79-4.8-6.62-4.8-11.49,0-6.58,2.25-11.87,6.76-15.88,4.51-4.01,10.7-6.01,18.59-6.01s15.21,1.62,21.97,4.86l9.73,19.74h2.97v-27.58h-2.97l-9.87,4.19c-6.49-2.79-13.83-4.19-22.03-4.19-9.91,0-17.66,2.91-23.25,8.72-5.59,5.81-8.38,13.5-8.38,23.05,0,6.85,1.98,12.77,5.95,17.78,3.96,5,9.87,8.54,17.71,10.61l22.44,5.81c7.48,1.9,12.89,4.44,16.22,7.64,3.33,3.2,5,7.55,5,13.04,0,3.35-.54,6.35-1.56,9.05l-6.15-4.26c-8.55-5.92-17.13-9.34-25.63-9.34-7.37,0-14.68,2.57-21.86,8.32l-2.6,2.08-6.95-15.03h-2.97v22.98l-49.39,39.55c-7.24,5.8-14.66,8.73-23.65,10.52l-27.61,5.48c-3.3-11.83-5.11-24.27-5.11-37.13Z"/>
      <polygon class="cls-1" points="157.75 161.16 169.05 162.86 169.05 202.7 122.89 202.7 122.89 162.86 134.06 161.16 134.06 158.49 98.35 158.49 98.35 161.16 109.53 162.86 109.53 251.28 98.35 253.11 98.35 255.66 134.06 255.66 134.06 253.11 122.89 251.28 122.89 205.74 169.05 205.74 169.05 251.28 157.75 253.11 157.75 255.66 193.58 255.66 193.58 253.11 182.28 251.28 182.28 162.86 193.58 161.16 193.58 158.49 157.75 158.49 157.75 161.16"/>
    </g>
  </g>
</svg>